<svg width="16" height="16" viewBox="0 0 16 16" fill="none" xmlns="http://www.w3.org/2000/svg">
<path d="M11.7807 7.39026C11.6961 7.20888 11.5104 7.09336 11.3059 7.09336H9.21891V0.506668C9.21891 0.226987 8.98517 0 8.69717 0H6.6102C6.32219 0 6.08845 0.226987 6.08845 0.506668V7.09336H4.00148C3.79696 7.09336 3.61122 7.20989 3.5267 7.39026C3.44113 7.57165 3.47452 7.78344 3.60913 7.93341L7.26133 11.9868C7.36046 12.0972 7.50342 12.16 7.65368 12.16C7.80394 12.16 7.9469 12.0962 8.04603 11.9868L11.6982 7.93341C11.8339 7.78445 11.8652 7.57165 11.7807 7.39026Z" fill="white"/>
<path d="M13.8667 10.8801V13.9521H2.13333V10.8801H0V14.9761C0 15.5424 0.477867 16.0001 1.06667 16.0001H14.9333C15.5232 16.0001 16 15.5424 16 14.9761V10.8801H13.8667Z" fill="white"/>
</svg>
