<svg width="20" height="20" viewBox="0 0 20 20" fill="none" xmlns="http://www.w3.org/2000/svg">
<path d="M7.35069 3.87341C7.35069 4.37741 7.35069 6.627 7.35069 6.627H5.33331V9.99411H7.35069V20H11.4948V9.99439H14.2757C14.2757 9.99439 14.5361 8.37989 14.6624 6.61459C14.3004 6.61459 11.5105 6.61459 11.5105 6.61459C11.5105 6.61459 11.5105 4.65571 11.5105 4.31236C11.5105 3.96826 11.9623 3.50541 12.4089 3.50541C12.8546 3.50541 13.7954 3.50541 14.6667 3.50541C14.6667 3.04697 14.6667 1.46298 14.6667 6.10472e-05C13.5035 6.10472e-05 12.1801 6.10472e-05 11.5968 6.10472e-05C7.24825 -0.000171449 7.35069 3.37028 7.35069 3.87341Z" fill="white"/>
</svg>
