<svg width="15" height="14" viewBox="0 0 15 14" fill="none" xmlns="http://www.w3.org/2000/svg">
<path d="M1.23589 6C1.72762 6 2.17178 5.72289 2.36198 5.29717C3.14732 3.54103 4.99395 2.30338 7.14675 2.30338C8.33327 2.30338 9.42106 2.68508 10.2932 3.31816L9.6096 3.41748C9.37611 3.45146 9.19448 3.62532 9.16283 3.84506C9.13113 4.06468 9.25726 4.27776 9.47258 4.36857L13.2316 5.95583C13.3964 6.02528 13.5873 6.01193 13.7392 5.92033C13.8908 5.82858 13.9829 5.67113 13.9839 5.50171L14.0034 1.61419C14.0047 1.39304 13.8511 1.19746 13.626 1.13299C13.4004 1.06853 13.1567 1.15035 13.0262 1.33444L12.5081 2.06528C11.1267 0.788977 9.23384 0 7.14675 0C3.98216 0 1.26132 1.81384 0.100885 4.39185C-0.0602812 4.74918 -0.01966 5.15834 0.208528 5.48162C0.436716 5.80501 0.822429 6 1.23589 6Z" fill="#2B2B2B"/>
<path d="M13.8277 8.51839C13.632 8.19496 13.3014 8 12.947 8C12.5256 8 12.1448 8.27711 11.9818 8.70283C11.3086 10.459 9.72581 11.6966 7.88059 11.6966C6.86354 11.6966 5.93115 11.3149 5.18361 10.6819L5.76954 10.5826C5.96965 10.5486 6.12534 10.3747 6.15251 10.1549C6.17966 9.93536 6.07158 9.72225 5.88702 9.63144L2.66497 8.04417C2.52371 7.97475 2.36011 7.98804 2.2299 8.07967C2.09997 8.17142 2.021 8.32887 2.02016 8.49826L2.00343 12.3858C2.0023 12.607 2.13393 12.8025 2.32696 12.867C2.52029 12.9315 2.72917 12.8496 2.841 12.6655L3.2851 11.9346C4.46914 13.211 6.09162 14 7.88056 14C10.5931 14 12.9252 12.1862 13.9198 9.60816C14.058 9.25082 14.0232 8.84169 13.8277 8.51839Z" fill="#2B2B2B"/>
</svg>
