<svg width="22" height="22" viewBox="0 0 22 22" fill="none" xmlns="http://www.w3.org/2000/svg">
<path d="M16.7711 19.4654C16.8282 19.4265 16.8848 19.3855 16.9382 19.3469C16.951 19.3376 16.9637 19.3284 16.9761 19.3195C17.1387 19.2025 17.2992 19.0811 17.4559 18.9535C17.4672 18.9444 17.4792 18.9357 17.4984 18.9216C17.5158 18.9089 17.5392 18.8916 17.5628 18.8716C17.563 18.8715 17.5631 18.8714 17.5633 18.8712L17.8948 18.5944L18.1223 18.4045L18.1 18.3854C20.04 16.5203 21.25 13.899 21.25 11C21.25 5.34811 16.6519 0.75 11 0.75C5.34811 0.75 0.75 5.34811 0.75 11C0.75 13.8861 1.94996 16.4968 3.87511 18.3607L3.85388 18.3794L4.07522 18.566L4.39939 18.8393L6.06727 19.6927L5.94358 19.91C6.17136 20.0397 6.40473 20.1623 6.64436 20.2752L6.64493 20.2755C6.65631 20.2808 6.66741 20.2857 6.67563 20.2894L6.69657 20.2988L6.69717 20.2991C7.47609 20.6611 8.30748 20.9269 9.17668 21.0838L9.17671 21.0838L9.24433 21.096L9.24547 21.0962C9.51454 21.1426 9.78744 21.1799 10.0644 21.205L10.0648 21.205C10.0836 21.2067 10.102 21.208 10.1181 21.2092C10.1349 21.2104 10.1493 21.2114 10.1636 21.2127L10.1649 21.2128C10.4382 21.2354 10.7166 21.25 11 21.25C11.2809 21.25 11.5567 21.2354 11.828 21.2136L11.8294 21.2134C11.844 21.2122 11.8589 21.2111 11.8762 21.2099L11.8772 21.2099C11.8935 21.2087 11.9121 21.2074 11.9309 21.2058L11.9321 21.2057C12.2063 21.1807 12.4769 21.1445 12.7437 21.0988L12.7451 21.0985L12.7537 21.097C12.7727 21.0936 12.7941 21.0899 12.8152 21.0858M16.7711 19.4654C16.5786 19.5972 16.3815 19.7205 16.1822 19.8379L16.1822 19.838C16.1276 19.8701 16.0732 19.9014 16.0186 19.9322L16.0184 19.9324C15.7985 20.0563 15.5737 20.1729 15.3434 20.2812C15.3172 20.2936 15.2747 20.3123 15.2584 20.3198L15.2581 20.32C14.4898 20.6724 13.6709 20.9322 12.8152 21.0858M16.7711 19.4654C16.771 19.4655 16.771 19.4655 16.7709 19.4655L16.6302 19.2589L16.7714 19.4652C16.7713 19.4653 16.7712 19.4653 16.7711 19.4654ZM12.8152 21.0858C12.8147 21.0859 12.8141 21.086 12.8136 21.0861L12.7695 20.84L12.817 21.0854C12.8164 21.0856 12.8158 21.0857 12.8152 21.0858ZM16.9365 17.5131L16.9368 17.5133C17.0007 17.5453 17.0631 17.5803 17.1242 17.6174C18.9058 15.9679 20.0227 13.6124 20.0227 11C20.0227 6.02498 15.975 1.97727 11 1.97727C6.02498 1.97727 1.97727 6.02498 1.97727 11C1.97727 13.5916 3.0762 15.931 4.83339 17.5789C4.87617 17.5523 4.9194 17.527 4.96311 17.5033C4.96312 17.5033 4.96313 17.5033 4.96314 17.5033L7.83789 15.9352L16.9365 17.5131ZM16.9365 17.5131L13.8576 15.9738C13.6659 15.878 13.5478 15.6868 13.5478 15.4727V14.4847C13.6057 14.4107 13.6653 14.3306 13.7259 14.2452L13.7262 14.2448M16.9365 17.5131L13.7262 14.2448M13.7262 14.2448C14.1201 13.6885 14.4389 13.0734 14.6763 12.4139M13.7262 14.2448L14.6763 12.4139M14.6763 12.4139C15.1681 12.1384 15.4816 11.6211 15.4816 11.0415V9.75236C15.4816 9.40811 15.3662 9.0748 15.1591 8.80257V7.20579C15.1812 6.96591 15.2372 5.83719 14.4124 4.89673C13.6767 4.05681 12.5086 3.65909 11 3.65909C9.49143 3.65909 8.32334 4.05681 7.58762 4.89632C6.76292 5.83668 6.81873 6.96595 6.84091 7.20546V8.80231C6.63415 9.07436 6.51836 9.40759 6.51836 9.752V11.0411C6.51836 11.4889 6.70754 11.9082 7.03347 12.2052C7.32543 13.2893 7.873 14.1215 8.13036 14.473V15.4425C8.13036 15.6477 8.01862 15.8363 7.8381 15.9351L14.6763 12.4139ZM4.46625 18.8906C4.64399 19.038 4.82717 19.1771 5.01217 19.3107L4.39959 18.8395C4.41719 18.8544 4.43437 18.8669 4.44484 18.8746L4.44569 18.8752C4.45802 18.8842 4.46262 18.8876 4.46625 18.8906Z" fill="#2B2B2B" stroke="#2B2B2B" stroke-width="0.5"/>
</svg>
