<svg width="16" height="16" viewBox="0 0 16 16" fill="none" xmlns="http://www.w3.org/2000/svg">
<path d="M12.2198 6.864C12.1334 6.69553 11.9435 6.58824 11.7344 6.58824H9.60111V0.470588C9.60111 0.210824 9.36217 0 9.06777 0H6.93444C6.64004 0 6.40111 0.210824 6.40111 0.470588V6.58824H4.26777C4.05871 6.58824 3.86884 6.69647 3.78244 6.864C3.69497 7.03247 3.72911 7.22918 3.86671 7.36847L7.60004 11.1332C7.70137 11.2358 7.84751 11.2941 8.00111 11.2941C8.15471 11.2941 8.30084 11.2348 8.40217 11.1332L12.1355 7.36847C12.2742 7.23012 12.3062 7.03247 12.2198 6.864Z" fill="#2B2B2B"/>
<path d="M13.8667 10.3529V13.1765H2.13333V10.3529H0V14.1176C0 14.6381 0.477867 15.0588 1.06667 15.0588H14.9333C15.5232 15.0588 16 14.6381 16 14.1176V10.3529H13.8667Z" fill="#2B2B2B"/>
</svg>
