<svg width="23" height="23" viewBox="0 0 23 23" fill="none" xmlns="http://www.w3.org/2000/svg">
<g clip-path="url(#clip0)">
<path d="M5.09728 13.8992L4.29669 16.8879L1.37052 16.9498C0.496027 15.3278 0 13.4721 0 11.5C0 9.59301 0.463773 7.79469 1.28584 6.21124H1.28647L3.89158 6.68885L5.03278 9.27833C4.79393 9.97466 4.66374 10.7222 4.66374 11.5C4.66383 12.3442 4.81675 13.153 5.09728 13.8992Z" fill="#FBBB00"/>
<path d="M22.799 9.35165C22.9311 10.0473 23 10.7658 23 11.5C23 12.3233 22.9134 13.1264 22.7485 13.9011C22.1887 16.5373 20.7259 18.8392 18.6995 20.4681L18.6989 20.4675L15.4176 20.3001L14.9532 17.401C16.2978 16.6125 17.3486 15.3784 17.9022 13.9011H11.7528V9.35165H17.9919H22.799Z" fill="#518EF8"/>
<path d="M18.6988 20.4675L18.6995 20.4681C16.7287 22.0522 14.2252 23 11.5 23C7.12048 23 3.31286 20.5522 1.37048 16.9499L5.09725 13.8992C6.06841 16.4911 8.56872 18.3362 11.5 18.3362C12.7599 18.3362 13.9403 17.9956 14.9531 17.401L18.6988 20.4675Z" fill="#28B446"/>
<path d="M18.8405 2.64752L15.115 5.69753C14.0667 5.0423 12.8276 4.66379 11.5 4.66379C8.50245 4.66379 5.95538 6.5935 5.03287 9.27834L1.28652 6.21126H1.28589C3.19983 2.52115 7.05548 0 11.5 0C14.2904 0 16.8488 0.993941 18.8405 2.64752Z" fill="#F14336"/>
</g>
<defs>
<clipPath id="clip0">
<rect width="23" height="23" fill="white"/>
</clipPath>
</defs>
</svg>
